<svg xmlns="http://www.w3.org/2000/svg" viewBox="0 0 800 420" role="img" aria-labelledby="title desc">
  <title id="title">Aluno do IFC estudando desenvolvimento web</title>
  <desc id="desc">Ilustracao com laptop, caderno e simbolos de codigo</desc>

  <defs>
    <linearGradient id="bg" x1="0" y1="0" x2="1" y2="1">
      <stop offset="0%" stop-color="#eef6f1" />
      <stop offset="100%" stop-color="#d2e6da" />
    </linearGradient>
  </defs>

  <rect width="800" height="420" fill="url(#bg)" rx="20" />
  <rect x="40" y="40" width="720" height="340" rx="18" fill="#ffffff" stroke="#c4d9cd" stroke-width="3" />

  <rect x="285" y="150" width="230" height="140" rx="10" fill="#2a3f35" />
  <rect x="300" y="165" width="200" height="95" rx="6" fill="#1f5c3e" />
  <rect x="250" y="295" width="300" height="16" rx="8" fill="#8aa998" />

  <text x="322" y="225" font-family="Courier New, monospace" font-size="28" fill="#d9f2e3">&lt;/&gt;</text>

  <circle cx="190" cy="170" r="48" fill="#ffd9b5" />
  <rect x="145" y="220" width="92" height="80" rx="16" fill="#1f5c3e" />
  <rect x="160" y="240" width="64" height="56" rx="8" fill="#2f7a54" />

  <rect x="540" y="220" width="120" height="80" rx="10" fill="#e6efe9" stroke="#b6cec0" stroke-width="2" />
  <line x1="560" y1="245" x2="640" y2="245" stroke="#88a796" stroke-width="4" />
  <line x1="560" y1="265" x2="630" y2="265" stroke="#88a796" stroke-width="4" />
  <line x1="560" y1="285" x2="620" y2="285" stroke="#88a796" stroke-width="4" />

  <text x="88" y="100" font-family="Arial, sans-serif" font-size="28" fill="#1f5c3e" font-weight="700">IFC</text>
  <text x="510" y="105" font-family="Arial, sans-serif" font-size="22" fill="#2b4e3f">Projeto com EJS</text>
</svg>
